<svg version="1.0" xmlns="http://www.w3.org/2000/svg" width="425.333" height="425.333" viewBox="0 0 319 319"><path d="M255.4 131.2c-.4.7-.7 4.8-.6 9.3.2 7.2.5 8.2 2.8 10.2 1.4 1.3 3.3 2.3 4.2 2.3 1.5 0 1.7 1.6 1.5 17 0 9.3.2 17 .5 17.1.4 0 1.5.2 2.4.4 1 .2 2.1-.1 2.4-.7.4-.6.7-8.4.7-17.4 0-15 .1-16.4 1.8-16.4.9 0 2.9-1.4 4.3-3.1 2.3-2.7 2.6-3.9 2.6-10.9 0-4.3-.5-8.2-1-8.5-2-1.2-5.1.6-4.9 2.8.2 3.6 0 4.5-1.6 5.1-1.1.4-1.4-.2-1.1-2.4.4-3.6-1.4-6.3-3.9-5.9-1.3.3-2 1.5-2.3 3.9-.3 3.3-2.1 6.7-2.3 4.4-.1-1.8-.9-5.9-1.4-7.2-.6-1.5-3.2-1.6-4.1 0zm28.1-.2c-.4.7-.7 7.8-.7 15.9v14.7l-2.9 1.7c-6 3.4-7.1 12.7-2.3 20 1.4 2.1 2.9 3.5 3.4 3.2.5-.3 1.2-.1 1.5.5.8 1.3 6.7.5 9.5-1.2 3-1.9 5.4-7.7 5.4-13 0-3.9-.5-5.3-2.8-7.7-1.6-1.7-3.3-2.8-3.7-2.5-1.1.6-1.9-.9-2.3-4.5-.2-1.8.1-3.1.8-3.1.7 0 .7-.3.1-.8-.6-.4-1-5.7-1-12.2 0-11-.1-11.5-2.2-11.8-1.1-.2-2.4.2-2.8.8zm23.3 2.4c-5.4 5.3-10.2 20.5-8.8 28.1.5 2.7.9 3 4.8 3.2 2.3 0 4.7.2 5.2.2.6.1 1 4.3 1 10.3 0 10.4.5 12.5 2.8 12.2.6-.1 1.7-.2 2.2-.3.6-.1 1-10.4 1-28.6V130h-2.3c-1.4 0-3.9 1.5-5.9 3.4zM1.6 140.6c-.9.8-1.6 2.1-1.6 2.8 0 1.1 7.5 12.4 9 13.6 1.4 1.1 2.5 6.8 2.5 12.5-.1 6.6 1.7 9.2 5.5 8 2.5-.8 3.2-3.3 3.2-11.1 0-3.8.6-7 1.4-8.1 9.9-13 11.1-15.4 8.6-17.5-2.4-2-4.3-1.3-7.2 2.8-1.4 1.9-3.6 4.8-4.9 6.4l-2.4 3-1.6-2.2C10.2 145 4.9 139 4 139c-.5 0-1.6.7-2.4 1.6zm118.1.2c-2.3 2.6-2.4 33.3-.1 35.6 3.5 3.5 7.1 0 6.1-6-.3-2-.2-3.4.4-3.4.6 0 .7-.5.4-1.1-.4-.6-.8-3-.9-5.4-.1-4.2 0-4.3 1.7-2.5.9 1.1 1.7 2.4 1.7 3 0 .5.5 1 1 1 .6 0 1 .7 1 1.5 0 .9.5 2.1 1 2.8.6.7 1.9 2.4 3.1 3.9 1.7 2.4 2.3 2.6 4.4 1.6 1.3-.6 2.6-1.8 2.9-2.7 1.2-3.4 6.1-11.5 7.2-11.8 1.2-.4 1.2 2.5.1 4.4-.4.6-.3 1.4.2 1.7.5.4.6 1.8.2 3.4-.5 1.5-.5 3.6-.1 4.7s.5 2.5.3 3.2c-.7 1.9 3.4 3.6 5.7 2.3 2.2-1.2 2.2-.6 2.2-20.1 0-13.5-.8-18-3.4-17.5-3.7.8-5.3 2.7-10.4 12.2-3 5.7-5.9 10.4-6.4 10.4-.4 0-1.4-1.5-2.1-3.3-.7-1.7-1.7-3.7-2.1-4.2-.5-.6-2.6-3.9-4.7-7.4-4.2-7.1-7-9-9.4-6.3zm106.5 0c-1.5 1.5-1.7 3.5-1.6 15.5.1 8.1.7 15 1.4 16.7 1.9 4.5 11.1 6.6 13 3 .8-1.6-.1-5.2-1.3-5.1-4.6.5-4.5.9-4.6-14-.2-14-.8-17-3.8-17.7-.7-.1-2.1.6-3.1 1.6zM36.3 152.7c-6.4 3.2-8.3 14.1-3.6 20.2 3.8 4.8 13.1 6.4 19 3.2 2.7-1.4 6.4-6.1 5.8-7.1-.3-.5-.1-1.1.4-1.4.5-.3.5-2.5-.1-5.3-.7-3.6-1.9-5.6-4.5-8.1-3.1-2.7-4.3-3.2-8.7-3.1-2.8 0-6.5.7-8.3 1.6zm12.6 7.5c1.1 2 1.3 3.5.6 6.4-2.1 8.2-10.7 6.3-11-2.3-.2-7 7.2-9.9 10.4-4.1zm15.1-7.7c-.6.8-.9 1.9-.5 2.5.3.5.1 1-.6 1-1 0-1 .3-.2 1.1s.8 2 .3 3.4c-.5 1.3-.6 2.5-.3 2.9.3.3.6 2.6.7 5.1.2 5.5 2.8 8.5 8.1 9.2 2.8.4 4.5 0 6.5-1.6 2.6-1.9 2.8-1.9 3.3-.2.3 1.2 1.2 1.8 2.8 1.6 1.3-.1 3-.3 3.7-.4 1.7-.1 1.7-23.2 0-24.9-1.5-1.5-5.5-1.5-6.4 0-.4.7-.9 4.1-1 7.8-.3 9-.2 8.7-2 10.4-1.7 1.8-3.2 2-5.3.7-1-.7-1.5-3.5-1.8-9.7-.2-5.7-.7-9-1.5-9.6-2-1.2-4.4-.9-5.8.7zm32 .4c-1.2 2.4-1.3 21.1-.1 23 1.1 1.8 3.9 2.3 6.1 1.1 1.2-.7 1.6-2.2 1.5-6-.1-2.8.2-5.3.7-5.6.5-.3.4-1.2-.2-1.9-1.4-1.7 2-5.5 4.9-5.5 3.4 0 5.1-1.2 5.1-3.5 0-1.3-.5-2.7-1-3-1.5-.9-6.8.4-8.5 2.2-1.3 1.2-1.5 1.3-1.5 0 0-3-5.4-3.6-7-.8zm74.4-.3c-8.4 4.1-9 17.7-1 22.9 3.4 2.2 10.4 2.8 15.1 1.3 3.2-1.1 4-1.8 4-3.8 0-2.1-.4-2.4-2.5-2.1-5.7 1.1-12.1.6-13-.9-1.8-2.8-.4-3.5 7.1-3.6 8.6 0 10-.6 9.5-3.7-.3-1.2-.5-2.9-.5-3.8-.1-2-2.9-5.2-5.8-6.7-3-1.6-9.2-1.5-12.9.4zm10.4 5c2.5 1.7 3.1 4.9.7 4.1-.8-.4-1.7-.2-2 .4-.4.5-1.3.6-2.2 0-.9-.4-2.4-.6-3.4-.4-2.3.6-2.4-.5-.3-3.5 1.8-2.6 4.1-2.8 7.2-.6zm18.4-5.5c-1.8.5-3.6 1.7-3.9 2.6-.8 2.1 2.4 4.5 4.6 3.4 3.1-1.5 8.7-1.3 10.1.4 1.9 2.3.3 3.4-5.5 3.6-6.3.3-9 1.5-10.3 4.5-3.3 7.1 6 14 13.7 10.1 2.5-1.2 3.2-1.3 4.1-.2 1.1 1.3 4.6 1.3 5.9 0 1.1-1.1 1-15.9-.1-19.1-.6-1.7-2.3-3.8-3.7-4.6-3.1-1.7-10.3-2.1-14.9-.7zm11.8 15.6c0 2.1-4 5.5-5.7 4.9-.8-.3-1.8-.6-2.3-.6-.4 0-1-.9-1.3-2.1-.4-1.4 0-2.2 1.5-2.8 3.3-1.2 7.8-.9 7.8.6z"/></svg>