<?xml version="1.0" standalone="no"?>
<!DOCTYPE svg PUBLIC "-//W3C//DTD SVG 20010904//EN"
 "http://www.w3.org/TR/2001/REC-SVG-20010904/DTD/svg10.dtd">
<svg version="1.0" xmlns="http://www.w3.org/2000/svg"
 width="319.000000pt" height="319.000000pt" viewBox="0 0 319.000000 319.000000"
 preserveAspectRatio="xMidYMid meet">
<metadata>
Created by potrace 1.14, written by Peter Selinger 2001-2017
</metadata>
<g transform="translate(0.000000,319.000000) scale(0.100000,-0.100000)"
fill="#000000" stroke="none">
<path d="M2554 1878 c-4 -7 -7 -48 -6 -93 2 -72 5 -82 28 -102 14 -13 33 -23
42 -23 15 0 17 -16 15 -170 0 -93 2 -170 5 -171 4 0 15 -2 24 -4 10 -2 21 1
24 7 4 6 7 84 7 174 0 150 1 164 18 164 9 0 29 14 43 31 23 27 26 39 26 109 0
43 -5 82 -10 85 -20 12 -51 -6 -49 -28 2 -36 0 -45 -16 -51 -11 -4 -14 2 -11
24 4 36 -14 63 -39 59 -13 -3 -20 -15 -23 -39 -3 -33 -21 -67 -23 -44 -1 18
-9 59 -14 72 -6 15 -32 16 -41 0z"/>
<path d="M2835 1880 c-4 -7 -7 -78 -7 -159 l0 -147 -29 -17 c-60 -34 -71 -127
-23 -200 14 -21 29 -35 34 -32 5 3 12 1 15 -5 8 -13 67 -5 95 12 30 19 54 77
54 130 0 39 -5 53 -28 77 -16 17 -33 28 -37 25 -11 -6 -19 9 -23 45 -2 18 1
31 8 31 7 0 7 3 1 8 -6 4 -10 57 -10 122 0 110 -1 115 -22 118 -11 2 -24 -2
-28 -8z"/>
<path d="M3068 1856 c-54 -53 -102 -205 -88 -281 5 -27 9 -30 48 -32 23 0 47
-2 52 -2 6 -1 10 -43 10 -103 0 -104 5 -125 28 -122 6 1 17 2 22 3 6 1 10 104
10 286 l0 285 -23 0 c-14 0 -39 -15 -59 -34z"/>
<path d="M16 1784 c-9 -8 -16 -21 -16 -28 0 -11 75 -124 90 -136 14 -11 25
-68 25 -125 -1 -66 17 -92 55 -80 25 8 32 33 32 111 0 38 6 70 14 81 99 130
111 154 86 175 -24 20 -43 13 -72 -28 -14 -19 -36 -48 -49 -64 l-24 -30 -16
22 c-39 58 -92 118 -101 118 -5 0 -16 -7 -24 -16z"/>
<path d="M1197 1782 c-23 -26 -24 -333 -1 -356 35 -35 71 0 61 60 -3 20 -2 34
4 34 6 0 7 5 4 11 -4 6 -8 30 -9 54 -1 42 0 43 17 25 9 -11 17 -24 17 -30 0
-5 5 -10 10 -10 6 0 10 -7 10 -15 0 -9 5 -21 10 -28 6 -7 19 -24 31 -39 17
-24 23 -26 44 -16 13 6 26 18 29 27 12 34 61 115 72 118 12 4 12 -25 1 -44 -4
-6 -3 -14 2 -17 5 -4 6 -18 2 -34 -5 -15 -5 -36 -1 -47 4 -11 5 -25 3 -32 -7
-19 34 -36 57 -23 22 12 22 6 22 201 0 135 -8 180 -34 175 -37 -8 -53 -27
-104 -122 -30 -57 -59 -104 -64 -104 -4 0 -14 15 -21 33 -7 17 -17 37 -21 42
-5 6 -26 39 -47 74 -42 71 -70 90 -94 63z"/>
<path d="M2262 1782 c-15 -15 -17 -35 -16 -155 1 -81 7 -150 14 -167 19 -45
111 -66 130 -30 8 16 -1 52 -13 51 -46 -5 -45 -9 -46 140 -2 140 -8 170 -38
177 -7 1 -21 -6 -31 -16z"/>
<path d="M363 1663 c-64 -32 -83 -141 -36 -202 38 -48 131 -64 190 -32 27 14
64 61 58 71 -3 5 -1 11 4 14 5 3 5 25 -1 53 -7 36 -19 56 -45 81 -31 27 -43
32 -87 31 -28 0 -65 -7 -83 -16z m126 -75 c11 -20 13 -35 6 -64 -21 -82 -107
-63 -110 23 -2 70 72 99 104 41z"/>
<path d="M640 1665 c-6 -8 -9 -19 -5 -25 3 -5 1 -10 -6 -10 -10 0 -10 -3 -2
-11 8 -8 8 -20 3 -34 -5 -13 -6 -25 -3 -29 3 -3 6 -26 7 -51 2 -55 28 -85 81
-92 28 -4 45 0 65 16 26 19 28 19 33 2 3 -12 12 -18 28 -16 13 1 30 3 37 4 17
1 17 232 0 249 -15 15 -55 15 -64 0 -4 -7 -9 -41 -10 -78 -3 -90 -2 -87 -20
-104 -17 -18 -32 -20 -53 -7 -10 7 -15 35 -18 97 -2 57 -7 90 -15 96 -20 12
-44 9 -58 -7z"/>
<path d="M960 1661 c-12 -24 -13 -211 -1 -230 11 -18 39 -23 61 -11 12 7 16
22 15 60 -1 28 2 53 7 56 5 3 4 12 -2 19 -14 17 20 55 49 55 34 0 51 12 51 35
0 13 -5 27 -10 30 -15 9 -68 -4 -85 -22 -13 -12 -15 -13 -15 0 0 30 -54 36
-70 8z"/>
<path d="M1704 1664 c-84 -41 -90 -177 -10 -229 34 -22 104 -28 151 -13 32 11
40 18 40 38 0 21 -4 24 -25 21 -57 -11 -121 -6 -130 9 -18 28 -4 35 71 36 86
0 100 6 95 37 -3 12 -5 29 -5 38 -1 20 -29 52 -58 67 -30 16 -92 15 -129 -4z
m104 -50 c25 -17 31 -49 7 -41 -8 4 -17 2 -20 -4 -4 -5 -13 -6 -22 0 -9 4 -24
6 -34 4 -23 -6 -24 5 -3 35 18 26 41 28 72 6z"/>
<path d="M1992 1669 c-18 -5 -36 -17 -39 -26 -8 -21 24 -45 46 -34 31 15 87
13 101 -4 19 -23 3 -34 -55 -36 -63 -3 -90 -15 -103 -45 -33 -71 60 -140 137
-101 25 12 32 13 41 2 11 -13 46 -13 59 0 11 11 10 159 -1 191 -6 17 -23 38
-37 46 -31 17 -103 21 -149 7z m118 -156 c0 -21 -40 -55 -57 -49 -8 3 -18 6
-23 6 -4 0 -10 9 -13 21 -4 14 0 22 15 28 33 12 78 9 78 -6z"/>
</g>
</svg>
